<svg width="81.68" height="79.91" xmlns="http://www.w3.org/2000/svg">
    <defs>
        <style>
            .cls-1 {
                fill: #fff;
            }
        </style>
    </defs>
    <title>LogoVenturus</title>
    <g>
        <title>Layer 1</title>
        <g id="Layer_1-2">
            <path fill="#00ffff" id="svg_1"
                d="m40.0899,79.91a40,40 0 1 1 39.91,-39.91a40,40 0 0 1 -39.91,39.91zm0,-77.36a37.41,37.41 0 1 0 37.36,37.45a37.45,37.45 0 0 0 -37.36,-37.45z"
                class="cls-1" />
            <path fill="#00ffff" id="svg_2"
                d="m40.4999,66a14.58,14.58 0 0 1 -3.41,-0.44a9,9 0 0 1 -6.06,-5l-15.16,-33.47a4.67,4.67 0 0 1 0,-3.77a4.78,4.78 0 0 1 2.82,-2.61a17.3,17.3 0 0 1 9.57,-0.28a8.47,8.47 0 0 1 5.38,4.76c2.45,5.81 6.56,16.41 9.58,24.14l2.12,5.41a1.93,1.93 0 0 0 3.56,0.08l12.93,-28.55a2.28,2.28 0 0 0 0.06,-2a2.73,2.73 0 0 0 -1.95,-1.34a19.13,19.13 0 0 0 -6.09,-0.32a6,6 0 0 0 -5,3.63l-5,12.67l-2.39,-0.91l5,-12.67a8.44,8.44 0 0 1 7.08,-5.22a21.49,21.49 0 0 1 6.89,0.36a5.29,5.29 0 0 1 3.69,2.68a4.77,4.77 0 0 1 0,4.2l-12.9,28.52a4.48,4.48 0 0 1 -8.25,-0.19c-0.6,-1.54 -1.32,-3.39 -2.12,-5.42c-3,-7.72 -7.14,-18.3 -9.6,-24.08a6,6 0 0 0 -3.69,-3.29a14.77,14.77 0 0 0 -8.08,0.23a2.19,2.19 0 0 0 -1.31,1.2a2.1,2.1 0 0 0 0,1.72l15.16,33.43a6.45,6.45 0 0 0 4.33,3.61a12,12 0 0 0 5.31,0.08a4.68,4.68 0 0 0 2.86,-1.73a1.27,1.27 0 1 1 2.14,1.38a7.09,7.09 0 0 1 -4.46,2.84a14.29,14.29 0 0 1 -3.01,0.35z"
                class="cls-1" />
        </g>
    </g>
</svg>